<svg width="1440" height="1000" viewBox="0 0 1440 1000" fill="none" xmlns="http://www.w3.org/2000/svg" style="margin-top: 200px" >
<path opacity="0.5" d="M5.44221e-05 466.23V400.747C-0.000102934 344.748 0.000131026 152.034 0.000130716 84.4495C96.0001 56.6946 300 -7.08014 402 0.643886C524 9.88244 621.936 133.883 713 182.544C804.064 231.205 1093.5 309.99 1186.5 330.845C1279.5 351.699 1361 363.672 1440 363.672V500H1392C1344 500 1248 500 1152 500C1056 500 960 500 864 500C768 500 672 500 576 500C480 500 384 500 288 500C192 500 96 500 48.0001 500H5.44221e-05V466.23Z" fill="#6C63FF"/>
<rect opacity="0.5" y="500" width="1440" height="568" fill="#6C63FF"/>
</svg>
